<svg width="16" height="16" viewBox="0 0 16 16" fill="none" xmlns="http://www.w3.org/2000/svg">
<path fill-rule="evenodd" clip-rule="evenodd" d="M4.97675 0.710748C5.75875 0.674748 6.00808 0.666748 8.00008 0.666748C9.99208 0.666748 10.2414 0.675415 11.0227 0.710748C11.8041 0.746081 12.3374 0.870748 12.8041 1.05141C13.2927 1.23608 13.7361 1.52475 14.1027 1.89808C14.4761 2.26408 14.7641 2.70675 14.9481 3.19608C15.1294 3.66275 15.2534 4.19608 15.2894 4.97608C15.3254 5.75942 15.3334 6.00875 15.3334 8.00008C15.3334 9.99208 15.3247 10.2414 15.2894 11.0234C15.2541 11.8034 15.1294 12.3367 14.9481 12.8034C14.7641 13.2928 14.4756 13.7362 14.1027 14.1027C13.7361 14.4761 13.2927 14.7641 12.8041 14.9481C12.3374 15.1294 11.8041 15.2534 11.0241 15.2894C10.2414 15.3254 9.99208 15.3334 8.00008 15.3334C6.00808 15.3334 5.75875 15.3247 4.97675 15.2894C4.19675 15.2541 3.66341 15.1294 3.19675 14.9481C2.70736 14.7641 2.26396 14.4756 1.89741 14.1027C1.52433 13.7365 1.23562 13.2933 1.05141 12.8041C0.870748 12.3374 0.746748 11.8041 0.710748 11.0241C0.674748 10.2407 0.666748 9.99142 0.666748 8.00008C0.666748 6.00808 0.675415 5.75875 0.710748 4.97742C0.746081 4.19608 0.870748 3.66275 1.05141 3.19608C1.2359 2.7068 1.52483 2.26362 1.89808 1.89741C2.26411 1.52442 2.70706 1.23571 3.19608 1.05141C3.66275 0.870748 4.19608 0.746748 4.97608 0.710748H4.97675ZM10.9634 2.03075C10.1901 1.99541 9.95808 1.98808 8.00008 1.98808C6.04208 1.98808 5.81008 1.99541 5.03675 2.03075C4.32141 2.06341 3.93341 2.18275 3.67475 2.28341C3.33275 2.41675 3.08808 2.57475 2.83141 2.83141C2.58811 3.06812 2.40087 3.35627 2.28341 3.67475C2.18275 3.93341 2.06341 4.32141 2.03075 5.03675C1.99541 5.81008 1.98808 6.04208 1.98808 8.00008C1.98808 9.95808 1.99541 10.1901 2.03075 10.9634C2.06341 11.6787 2.18275 12.0667 2.28341 12.3254C2.40075 12.6434 2.58808 12.9321 2.83141 13.1687C3.06808 13.4121 3.35675 13.5994 3.67475 13.7167C3.93341 13.8174 4.32141 13.9367 5.03675 13.9694C5.81008 14.0047 6.04141 14.0121 8.00008 14.0121C9.95875 14.0121 10.1901 14.0047 10.9634 13.9694C11.6787 13.9367 12.0667 13.8174 12.3254 13.7167C12.6674 13.5834 12.9121 13.4254 13.1687 13.1687C13.4121 12.9321 13.5994 12.6434 13.7167 12.3254C13.8174 12.0667 13.9367 11.6787 13.9694 10.9634C14.0047 10.1901 14.0121 9.95808 14.0121 8.00008C14.0121 6.04208 14.0047 5.81008 13.9694 5.03675C13.9367 4.32141 13.8174 3.93341 13.7167 3.67475C13.5834 3.33275 13.4254 3.08808 13.1687 2.83141C12.932 2.58813 12.6439 2.40089 12.3254 2.28341C12.0667 2.18275 11.6787 2.06341 10.9634 2.03075ZM7.06342 10.2607C7.58652 10.4785 8.169 10.5079 8.71137 10.3439C9.25373 10.1799 9.72234 9.83269 10.0372 9.36158C10.352 8.89046 10.4935 8.32466 10.4374 7.76082C10.3814 7.19697 10.1314 6.67006 9.73008 6.27008C9.47424 6.0144 9.16489 5.81862 8.8243 5.69685C8.48372 5.57507 8.12037 5.53032 7.76041 5.56583C7.40046 5.60133 7.05285 5.7162 6.74262 5.90217C6.43238 6.08814 6.16724 6.34058 5.96628 6.64132C5.76532 6.94205 5.63354 7.28361 5.58043 7.64139C5.52731 7.99917 5.55418 8.36428 5.65911 8.71043C5.76403 9.05657 5.9444 9.37515 6.18723 9.64323C6.43006 9.9113 6.7293 10.1222 7.06342 10.2607ZM5.33475 5.33475C5.68476 4.98473 6.1003 4.70708 6.55761 4.51766C7.01493 4.32823 7.50508 4.23073 8.00008 4.23073C8.49508 4.23073 8.98523 4.32823 9.44255 4.51766C9.89987 4.70708 10.3154 4.98473 10.6654 5.33475C11.0154 5.68476 11.2931 6.1003 11.4825 6.55761C11.6719 7.01493 11.7694 7.50508 11.7694 8.00008C11.7694 8.49508 11.6719 8.98523 11.4825 9.44255C11.2931 9.89987 11.0154 10.3154 10.6654 10.6654C9.95852 11.3723 8.99978 11.7694 8.00008 11.7694C7.00039 11.7694 6.04164 11.3723 5.33475 10.6654C4.62786 9.95852 4.23073 8.99978 4.23073 8.00008C4.23073 7.00039 4.62786 6.04164 5.33475 5.33475ZM12.6054 4.79208C12.6922 4.71026 12.7616 4.61187 12.8096 4.50273C12.8576 4.39359 12.8833 4.27593 12.885 4.1567C12.8868 4.03748 12.8646 3.91911 12.8197 3.80862C12.7749 3.69813 12.7084 3.59776 12.6241 3.51344C12.5397 3.42913 12.4394 3.36259 12.3289 3.31776C12.2184 3.27293 12.1 3.25073 11.9808 3.25247C11.8616 3.25421 11.7439 3.27985 11.6348 3.32788C11.5256 3.37591 11.4272 3.44534 11.3454 3.53208C11.1863 3.70077 11.0992 3.92483 11.1025 4.1567C11.1059 4.38857 11.1995 4.61 11.3635 4.77398C11.5275 4.93795 11.7489 5.03157 11.9808 5.03495C12.2127 5.03833 12.4367 4.95121 12.6054 4.79208Z" fill="#222222"/>
<defs>
<rect width="16" height="16" fill="white"/>
</defs>
</svg>