<svg width="24" height="25" viewBox="0 0 24 25" fill="none" xmlns="http://www.w3.org/2000/svg">
<path fill-rule="evenodd" clip-rule="evenodd" d="M6.04119 20.1425V20.2757C6.04119 20.563 5.92707 20.8385 5.72393 21.0417C5.52079 21.2448 5.24527 21.3589 4.95799 21.3589H3.3332C3.04592 21.3589 2.7704 21.2448 2.56726 21.0417C2.36412 20.8385 2.25 20.563 2.25 20.2757V14.3208C2.25 14.0336 2.36412 13.758 2.56726 13.5549C2.7704 13.3518 3.04592 13.2376 3.3332 13.2376H4.95799C5.20194 13.2375 5.43878 13.3198 5.63016 13.4711C5.82154 13.6223 5.95626 13.8338 6.01249 14.0712C6.72956 13.8128 7.56742 13.5052 7.82359 13.3882C8.04131 13.2891 8.29262 13.2555 8.50167 13.2431C8.71742 13.2326 8.93363 13.2364 9.14888 13.2544C9.38991 13.2736 9.62991 13.304 9.86813 13.3454L9.88058 13.3476L9.88437 13.3481H9.886L9.89575 13.3503L13.519 14.1627L13.5412 14.1703L13.5472 14.1724L13.5721 14.18C13.7284 14.2258 13.8863 14.2661 14.0455 14.3008C14.3569 14.3685 14.7496 14.4319 15.1151 14.4319C15.4531 14.4319 15.803 14.5581 15.9893 14.9004C16.1496 15.1939 16.1122 15.5167 16.0526 15.7398C15.9774 16.0182 15.8225 16.3107 15.6259 16.5593C15.8912 16.4591 16.1821 16.3405 16.494 16.2126L16.5607 16.1856C17.4397 15.8243 18.4817 15.3965 19.4013 15.2448C20.452 15.071 21.2162 15.4522 21.5629 16.1287C21.8716 16.731 21.8001 17.5211 21.3354 17.9972C21.2189 18.1169 21.0413 18.2426 20.8631 18.3579C20.6725 18.4819 20.438 18.6211 20.1775 18.7695C19.579 19.1047 18.9732 19.4265 18.3604 19.7347C17.0757 20.3862 15.7293 21.0199 15.3014 21.1764C14.8053 21.3578 14.2724 21.3752 13.7606 21.3486C13.4515 21.3294 13.1429 21.3033 12.835 21.2701C12.6096 21.2468 12.3839 21.226 12.158 21.2078C11.1138 21.1287 10.3122 20.8736 9.57458 20.6391L9.48467 20.6104C8.7221 20.3689 8.01261 20.1539 7.07294 20.1159C6.85846 20.1073 6.42952 20.1241 6.04119 20.1425ZM8.27258 14.3739C8.30778 14.3577 8.39985 14.3344 8.56396 14.3246C8.71777 14.3154 8.89325 14.3214 9.06494 14.3344C9.27037 14.3509 9.47494 14.3767 9.67803 14.4118H9.67965L13.2363 15.2096L13.2607 15.2172C13.4436 15.271 13.6284 15.3184 13.8148 15.3591C14.1316 15.4284 14.5567 15.501 14.9895 15.5134C14.9509 15.6177 14.899 15.7165 14.8351 15.8075C14.7485 15.9332 14.6537 16.0301 14.5757 16.0859C14.3504 16.2473 14.1684 16.3145 14.0579 16.3432C14.0203 16.3535 13.9819 16.3607 13.9431 16.3648H13.9312L11.0271 16.3302L10.9242 17.4047L10.9529 17.4101L11.0358 17.4247L11.3369 17.4778C11.5899 17.5222 11.937 17.5818 12.3151 17.6436C13.0592 17.7649 13.9561 17.8992 14.4652 17.9301C14.8173 17.9517 15.2267 17.8434 15.6074 17.7161C16.0044 17.5834 16.4534 17.3998 16.9051 17.2146C17.835 16.8333 18.7823 16.445 19.5779 16.3134C20.2657 16.1996 20.5111 16.4509 20.5988 16.6226C20.725 16.8691 20.6568 17.1426 20.5598 17.2411C20.5365 17.2655 20.4515 17.3343 20.2739 17.4497C20.1081 17.5564 19.8942 17.6847 19.6429 17.8272C19.0592 18.1539 18.4684 18.4678 17.8708 18.7685C16.5753 19.4254 15.2863 20.0282 14.9288 20.1593C14.6396 20.2654 14.2816 20.2909 13.8164 20.2671C13.5423 20.2509 13.2687 20.2276 12.9959 20.1972C12.7442 20.1707 12.4921 20.1476 12.2398 20.1279C11.3234 20.0585 10.6269 19.837 9.88004 19.5998L9.81234 19.5781C9.03894 19.3328 8.21138 19.0777 7.11681 19.0338C6.87038 19.0241 6.43168 19.0393 6.04119 19.0577V15.2118C6.80214 14.9393 7.92975 14.5304 8.27258 14.3739ZM4.95799 14.3203H3.3332V20.2752H4.95799V14.3203Z" fill="#222222"/>
<path d="M14.303 4.46436C13.2154 4.46436 12.3333 5.33733 12.3333 6.41436C12.3333 7.28378 12.678 9.34723 16.071 11.4331C16.1318 11.4701 16.2016 11.4897 16.2727 11.4897C16.3439 11.4897 16.4137 11.4701 16.4744 11.4331C19.8674 9.34723 20.2121 7.28378 20.2121 6.41436C20.2121 5.33733 19.3301 4.46436 18.2424 4.46436C17.1548 4.46436 16.2727 5.64617 16.2727 5.64617C16.2727 5.64617 15.3907 4.46436 14.303 4.46436Z" stroke="#222222" stroke-linecap="round" stroke-linejoin="round"/>
</svg>
