<svg width="180" height="32" viewBox="0 0 180 32" fill="none" xmlns="http://www.w3.org/2000/svg">
<path id="Vector" d="M19.1648 19.3043C19.1648 18.8086 18.9995 18.5608 18.6691 18.5608C18.2561 18.5608 18.0909 18.8912 18.1735 19.6347V21.452C18.1735 23.2694 17.5126 24.2607 16.1909 24.2607C14.9518 24.2607 14.291 23.2694 14.291 21.2042L14.2084 19.0564V11.7871C14.2084 9.55667 13.6301 7.98715 12.391 6.99587C11.2345 6.08719 9.74759 5.59155 7.84764 5.59155C5.86508 5.59155 4.29555 6.08719 2.97384 6.99587C1.73474 7.90454 1.07389 9.06103 1.07389 10.3827C1.07389 10.961 1.2391 11.5392 1.65213 11.9523C2.06517 12.3653 2.56081 12.6131 3.13905 12.6131C3.6347 12.6131 4.04773 12.4479 4.29555 12.2001C4.70858 11.8697 4.8738 11.4566 4.8738 11.0436C4.8738 10.2175 4.54337 9.80449 3.79991 9.80449C3.30427 9.80449 2.97384 10.0523 2.80863 10.4653C2.72602 10.6306 2.72602 10.6306 2.72602 10.7132C2.64341 10.7958 2.56081 10.8784 2.4782 10.8784C2.23038 10.8784 2.14777 10.7132 2.14777 10.3001C2.14777 9.22625 2.64341 8.31757 3.7173 7.57411C4.79119 6.83065 6.1955 6.50023 7.84764 6.50023C9.41716 6.50023 10.7389 6.91326 11.6475 7.65672C12.6388 8.40018 13.1345 9.39146 13.1345 10.7132C13.1345 11.9523 12.7214 12.8609 11.8128 13.4392C10.9041 14.0174 9.49977 14.3479 7.4346 14.5131C6.1955 14.5957 5.20422 14.6783 4.29555 14.9261C2.97384 15.1739 1.89995 15.8348 1.15649 16.7435C0.330427 17.6521 0 18.8086 0 20.0477C0 21.6173 0.578247 22.8564 1.65213 23.765C2.80863 24.7563 4.21294 25.1693 6.03029 25.1693C8.34328 25.1693 10.2432 24.4259 11.7302 22.8564C12.3084 22.2781 12.804 21.6999 13.1345 21.1216L13.2997 20.8738V21.8651C13.3823 24.0955 14.3736 25.1693 16.1909 25.1693C18.0909 25.1693 19.0821 23.765 19.1648 20.9564V19.3043ZM13.2171 17.0739C13.2171 19.0564 12.5562 20.7912 11.1519 22.1955C9.74759 23.5998 8.09546 24.3433 6.1129 24.3433C4.62598 24.3433 3.38687 23.9302 2.39559 23.1042C1.40431 22.2781 0.908674 21.2042 0.908674 19.9651C0.908674 18.8912 1.2391 17.9826 1.81735 17.2391C2.39559 16.5782 3.05645 16.0826 3.79991 15.8348C4.62598 15.587 5.78247 15.3391 7.352 15.2565C10.078 15.0913 11.8128 14.5131 12.6388 13.5218C12.8866 13.1914 13.0519 13.1088 13.0519 13.1088C13.1345 13.1088 13.2171 13.274 13.2171 13.5218V17.0739ZM33.9514 6.91326C33.0427 6.08719 31.8036 5.59155 30.3167 5.59155C27.7559 5.59155 25.8559 6.83065 24.4516 9.22625V6.74805C24.4516 6.1698 24.2038 5.92198 23.7081 5.92198H23.5429C23.4603 5.92198 23.3777 6.00459 23.3777 6.00459C22.8821 6.08719 22.469 6.08719 22.2212 6.08719H20.8169C20.2386 6.00459 19.8256 6.00459 19.6604 6.00459C19.2474 6.00459 18.9995 6.1698 18.9995 6.50023C18.9995 6.83065 19.2474 6.99587 19.743 6.99587L20.8995 6.91326C21.5604 6.83065 21.9734 6.83065 22.1386 6.83065C22.5516 6.83065 22.8821 6.91326 23.1299 6.99587C23.4603 7.16108 23.6255 7.98715 23.7081 9.22625V17.5695C23.7081 20.5434 23.6255 22.2781 23.3777 22.8564C23.2125 23.4346 22.6342 23.765 21.643 23.765H19.9908C19.4126 23.765 19.1648 23.9302 19.1648 24.2607C19.1648 24.5911 19.4126 24.6737 19.9082 24.6737H19.9908L21.3125 24.5911L22.7994 24.5085H25.6907L27.2602 24.5911L28.5819 24.6737H28.6645C29.1602 24.6737 29.408 24.5085 29.408 24.1781C29.408 23.8476 29.1602 23.765 28.5819 23.765H26.4341C25.5255 23.765 24.9472 23.4346 24.6994 22.8564C24.5342 22.2781 24.369 20.4608 24.369 17.5695V14.3479C24.369 11.8697 24.6994 9.96971 25.4429 8.73061C26.4341 7.16108 27.9211 6.33501 30.0688 6.33501C31.3079 6.33501 32.2992 6.66544 33.1253 7.32629C33.8688 7.98715 34.2818 8.81321 34.2818 9.8871C34.2818 10.7958 34.1166 11.2088 33.7861 11.2088C33.7035 11.2088 33.6209 11.1262 33.3731 10.961C33.2079 10.7958 32.9601 10.7132 32.7949 10.7132C32.0514 10.7132 31.6384 11.1262 31.6384 11.8697C31.6384 12.6957 32.0514 13.1088 32.9601 13.1088C33.6209 13.1088 34.1992 12.7783 34.6122 12.2001C35.0252 11.6218 35.2731 10.8784 35.2731 9.96971C35.3557 8.81321 34.86 7.73933 33.9514 6.91326ZM44.2772 23.765H42.6251C41.7164 23.765 41.1381 23.4346 40.8903 22.8564C40.7251 22.2781 40.5599 20.4608 40.5599 17.5695V6.83065C40.5599 6.25241 40.3947 5.92198 39.9816 5.92198C39.8164 5.92198 39.6512 5.92198 39.3208 6.00459H36.8426L35.7687 5.92198H35.6861C35.2731 5.92198 35.0252 6.08719 35.0252 6.41762C35.0252 6.74805 35.2731 6.91326 35.7687 6.91326H35.8513L36.8426 6.83065C37.5034 6.74805 37.9165 6.74805 38.0817 6.74805C38.4947 6.74805 38.8251 6.83065 39.073 6.91326C39.4034 7.07847 39.5686 7.90454 39.6512 9.14364V17.4869C39.6512 20.4608 39.5686 22.1955 39.3208 22.7737C39.1556 23.352 38.5773 23.6824 37.586 23.6824H35.8513C35.2731 23.6824 35.0252 23.8476 35.0252 24.1781C35.0252 24.5085 35.2731 24.5911 35.7687 24.5911H35.8513L37.173 24.5085L38.7425 24.4259H41.6338L43.1207 24.5085L44.4424 24.5911H44.6076C45.0207 24.5911 45.2685 24.4259 45.2685 24.0955C45.0207 23.9302 44.7728 23.765 44.2772 23.765ZM39.6512 3.11335C39.9816 3.11335 40.3121 2.94814 40.5599 2.70032C40.8077 2.4525 40.9729 2.12207 40.9729 1.70904C40.9729 1.296 40.8077 0.965576 40.5599 0.717756C40.3121 0.552543 39.9816 0.387329 39.6512 0.387329C39.3208 0.387329 38.9904 0.552543 38.6599 0.800363C38.4121 1.04818 38.2469 1.37861 38.2469 1.79164C38.2469 2.20468 38.4121 2.5351 38.6599 2.78292C38.9078 3.03074 39.2382 3.11335 39.6512 3.11335ZM58.2377 15.6696C57.1638 15.1739 55.5117 14.8435 53.3639 14.5957C51.2988 14.3479 49.8118 14.0174 49.0684 13.4392C48.3249 12.8609 47.9119 11.9523 47.9119 10.7958C47.9119 9.47407 48.4075 8.48279 49.3988 7.65672C50.3901 6.83065 51.7118 6.41762 53.1987 6.41762C54.8509 6.41762 56.1726 6.91326 57.2464 7.90454C58.2377 8.89582 58.816 10.1349 58.816 11.7044V12.0349L58.6508 12.7783V12.8609C58.6508 13.274 58.816 13.4392 59.0638 13.4392C59.3942 13.4392 59.5594 13.1914 59.5594 12.7783V12.4479C59.5594 12.2827 59.4768 12.0349 59.4768 11.8697V7.32629C59.5594 6.83065 59.5594 6.50023 59.5594 6.41762C59.5594 6.00459 59.3942 5.83937 59.1464 5.83937C58.8986 5.83937 58.816 6.1698 58.816 6.91326V8.73061C57.4943 6.66544 55.5943 5.67416 53.1987 5.67416C51.3814 5.67416 49.8945 6.1698 48.6553 7.24369C47.4989 8.23497 46.838 9.55667 46.838 11.0436C46.838 11.8697 47.0858 12.6131 47.4989 13.274C47.9119 13.9348 48.4901 14.4305 49.151 14.7609C49.9771 15.0913 51.5466 15.4218 54.0248 15.6696C56.09 15.9174 57.4943 16.3304 58.3203 16.9087C59.1464 17.4869 59.5594 18.3956 59.5594 19.6347C59.5594 21.039 58.9812 22.1129 57.9073 23.0216C56.8334 23.8476 55.3465 24.3433 53.6118 24.3433C51.7118 24.3433 50.1423 23.8476 48.9858 22.8564C47.8293 21.8651 47.1684 20.5434 47.1684 18.8912V16.7435C47.1684 16.0826 47.0032 15.8348 46.6728 15.8348C46.3424 15.8348 46.1771 16.0826 46.1771 16.4956C46.1771 16.4956 46.1771 16.8261 46.2598 17.4869C46.3424 18.1478 46.3424 19.0564 46.3424 20.2129C46.3424 21.2868 46.3424 22.1955 46.2598 22.7737C46.1771 23.4346 46.1771 23.8476 46.1771 24.1781C46.1771 24.6737 46.3424 24.9215 46.7554 24.9215C47.0858 24.9215 47.251 24.6737 47.251 24.0955C47.251 24.0955 47.251 23.5998 47.1684 22.7737C47.1684 22.6085 47.0858 22.2781 47.0858 21.8651C48.4901 24.0128 50.6379 25.0041 53.5291 25.0041C55.5943 25.0041 57.2464 24.5085 58.5682 23.4346C59.8899 22.3607 60.5507 20.9564 60.5507 19.3043C60.5507 17.5695 59.7246 16.3304 58.2377 15.6696ZM80.7067 5.59155C78.1459 5.59155 76.0808 6.50023 74.5113 8.23497C72.8591 9.96971 72.1157 12.2827 72.1157 15.0913C72.1157 15.7522 72.1983 16.413 72.2809 16.9913V18.5608C72.2809 20.626 72.0331 22.1129 71.5374 23.0216C71.0418 23.8476 70.1331 24.2607 68.894 24.2607C67.3245 24.2607 66.2506 23.4346 65.8375 21.8651C65.5071 20.7912 65.4245 18.9738 65.4245 16.4956V7.4089C65.5071 7.07847 65.8375 6.91326 66.4984 6.91326H67.7375C68.3983 6.99587 68.7288 6.99587 68.9766 6.99587H70.2157C70.7939 6.99587 71.0418 6.83065 71.0418 6.50023C71.0418 6.1698 70.7939 6.00459 70.2983 6.00459C70.0505 6.00459 69.6375 6.00459 69.0592 6.08719H66.581C65.8375 6.08719 65.5071 5.83937 65.5071 5.26113V1.95686C65.5071 1.54382 65.3419 1.37861 65.0941 1.37861C64.8463 1.37861 64.7637 1.54382 64.6811 1.79164C64.5984 2.03946 64.5984 2.70032 64.5984 3.7742V3.93942C64.5984 4.68288 64.5158 5.17852 64.4332 5.42634C64.268 5.92198 63.7724 6.1698 63.0289 6.1698H62.1202C61.7072 6.08719 61.4594 6.08719 61.2116 6.08719C60.7985 6.08719 60.5507 6.25241 60.5507 6.58283C60.5507 6.91326 60.7985 7.07847 61.2942 7.07847L62.1202 6.99587C62.6985 6.91326 63.1115 6.91326 63.1941 6.91326C63.6898 6.91326 64.0202 6.99587 64.1028 7.24369C64.268 7.4089 64.268 7.90454 64.268 8.73061V18.5608C64.268 22.8564 65.7549 25.0867 68.7288 25.0867C70.9592 25.0867 72.3635 24.0955 72.8591 22.1955C73.0243 21.6999 73.1069 21.039 73.1069 20.2955C73.4374 21.039 73.933 21.6999 74.4286 22.3607C76.0808 24.2607 78.1459 25.1693 80.6241 25.1693C83.2676 25.1693 85.3327 24.2607 86.9849 22.5259C88.637 20.7086 89.4631 18.3956 89.4631 15.587C89.4631 12.6957 88.637 10.3001 86.9849 8.48279C85.4153 6.50023 83.2676 5.59155 80.7067 5.59155ZM86.2414 21.8651C84.8371 23.4346 82.9371 24.2607 80.6241 24.2607C78.3111 24.2607 76.4938 23.4346 75.0895 21.7825C74.0156 20.4608 73.3548 18.8912 73.1069 16.9087V16.6609C73.0243 16.1652 73.0243 15.6696 73.0243 15.0913C73.0243 12.4479 73.6852 10.3827 75.0895 8.73061C76.4938 7.07847 78.3111 6.25241 80.6241 6.25241C82.9371 6.25241 84.7545 7.07847 86.1588 8.81321C87.5631 10.4653 88.3066 12.6957 88.3066 15.4218C88.4718 18.1478 87.7283 20.2129 86.2414 21.8651ZM106.397 18.1478C106.067 18.1478 105.902 18.4782 105.902 19.0564C105.819 20.0477 105.406 21.039 104.663 22.1129C103.506 23.5998 101.854 24.2607 99.6237 24.2607C97.2281 24.2607 95.4107 23.5172 94.0064 21.9477C92.6021 20.3782 91.9413 18.2304 91.9413 15.5044C91.9413 12.6957 92.6847 10.4653 94.089 8.81321C95.4933 7.16108 97.4759 6.33501 99.8715 6.33501C101.441 6.33501 102.845 6.83065 104.002 7.65672C105.158 8.56539 105.737 9.63928 105.737 10.8784C105.737 11.6218 105.571 11.9523 105.241 11.9523C105.158 11.9523 105.076 11.8697 104.911 11.8697L104.663 11.6218C104.58 11.4566 104.332 11.4566 104.002 11.4566C103.258 11.4566 102.845 11.8697 102.845 12.6131C102.845 13.5218 103.341 13.9348 104.332 13.9348C104.993 13.9348 105.489 13.687 105.902 13.1088C106.315 12.6131 106.563 11.9523 106.563 11.1262C106.563 9.55667 105.902 8.23497 104.58 7.16108C103.258 6.08719 101.606 5.50895 99.7063 5.50895C97.0629 5.50895 94.9151 6.41762 93.3456 8.23497C91.6934 10.0523 90.8674 12.4479 90.8674 15.4218C90.8674 18.2304 91.6934 20.5434 93.263 22.3607C94.9151 24.0955 96.9803 25.0041 99.6237 25.0041C101.854 25.0041 103.671 24.3433 104.911 23.0216C106.232 21.6999 106.81 20.2955 106.81 18.8086C106.893 18.3956 106.728 18.1478 106.397 18.1478ZM117.797 5.59155C115.236 5.59155 113.336 6.83065 111.932 9.22625V6.74805C111.932 6.1698 111.684 5.92198 111.189 5.92198H111.023C110.941 5.92198 110.858 6.00459 110.858 6.00459C110.363 6.08719 109.95 6.08719 109.702 6.08719H108.297C107.719 6.00459 107.306 6.00459 107.141 6.00459C106.728 6.00459 106.48 6.1698 106.48 6.50023C106.48 6.83065 106.728 6.99587 107.223 6.99587L108.38 6.91326C109.041 6.83065 109.454 6.83065 109.619 6.83065C110.032 6.83065 110.363 6.91326 110.61 6.99587C110.941 7.16108 111.106 7.98715 111.189 9.22625V17.5695C111.189 20.5434 111.106 22.2781 110.858 22.8564C110.693 23.4346 110.115 23.765 109.123 23.765H107.471C106.893 23.765 106.645 23.9302 106.645 24.2607C106.645 24.5911 106.893 24.6737 107.389 24.6737H107.471L108.793 24.5911L110.28 24.5085H113.171L114.658 24.5911L115.98 24.6737H116.062C116.558 24.6737 116.806 24.5085 116.806 24.1781C116.806 23.8476 116.558 23.765 115.98 23.765H114.328C113.419 23.765 112.841 23.4346 112.593 22.8564C112.428 22.2781 112.263 20.4608 112.263 17.5695V14.4305C112.263 11.9523 112.593 10.0523 113.336 8.81321C114.328 7.24369 115.815 6.41762 117.962 6.41762C119.201 6.41762 120.193 6.74805 120.936 7.4089C121.68 8.06975 122.093 8.89582 122.093 9.96971C122.093 10.8784 121.927 11.2914 121.597 11.2914C121.514 11.2914 121.349 11.2088 121.184 11.0436C121.019 10.8784 120.771 10.7958 120.606 10.7958C119.862 10.7958 119.449 11.2088 119.449 11.9523C119.449 12.7783 119.862 13.1914 120.771 13.1914C121.432 13.1914 122.01 12.8609 122.423 12.2827C122.836 11.7044 123.084 10.961 123.084 10.0523C123.084 8.73061 122.588 7.65672 121.597 6.83065C120.523 6.08719 119.284 5.67416 117.797 5.59155ZM142.166 18.9738C142.166 18.4782 142.001 18.2304 141.671 18.2304C141.34 18.2304 141.092 18.5608 141.175 19.3043V21.1216C141.175 23.0216 140.514 23.9302 139.192 23.9302C137.953 23.9302 137.292 22.939 137.292 20.8738L137.21 18.726V11.4566C137.21 9.30885 136.631 7.65672 135.392 6.66544C134.236 5.75677 132.749 5.26113 130.849 5.26113C128.949 5.26113 127.38 5.67416 126.058 6.58283C124.819 7.49151 124.158 8.648 124.158 9.96971C124.158 10.548 124.323 11.1262 124.736 11.5392C125.149 11.9523 125.645 12.2001 126.223 12.2001C126.719 12.2001 127.132 12.0349 127.38 11.7871C127.71 11.4566 127.875 11.0436 127.875 10.6306C127.875 9.80449 127.545 9.39146 126.719 9.39146C126.223 9.39146 125.893 9.63928 125.727 10.0523C125.645 10.1349 125.645 10.2175 125.645 10.3001C125.562 10.3827 125.48 10.4653 125.397 10.4653C125.149 10.4653 125.067 10.3001 125.067 9.8871C125.067 8.81321 125.562 7.90454 126.636 7.16108C127.71 6.41762 129.114 6.08719 130.766 6.08719C132.336 6.08719 133.658 6.50023 134.566 7.24369C135.558 7.98715 136.053 8.97843 136.053 10.3001C136.053 11.5392 135.64 12.4479 134.732 13.0262C133.823 13.6044 132.419 13.9348 130.353 14.1C129.114 14.1827 128.123 14.2653 127.214 14.5131C125.893 14.7609 124.819 15.4218 124.075 16.3304C123.249 17.2391 122.919 18.3956 122.919 19.6347C122.919 21.2042 123.497 22.4433 124.571 23.352C125.727 24.3433 127.132 24.7563 128.949 24.7563C131.262 24.7563 133.162 24.0128 134.649 22.4433C135.227 21.8651 135.723 21.2868 136.053 20.7086L136.218 20.4608V21.452C136.301 23.6824 137.292 24.7563 139.11 24.7563C141.01 24.7563 142.001 23.352 142.084 20.5434L142.166 18.9738ZM136.218 16.7435C136.218 18.726 135.558 20.4608 134.153 21.8651C132.832 23.2694 131.097 24.0128 129.114 24.0128C127.627 24.0128 126.388 23.5998 125.397 22.7737C124.406 21.9477 123.91 20.8738 123.91 19.6347C123.91 18.5608 124.24 17.6521 124.819 16.9087C125.314 16.2478 125.975 15.7522 126.719 15.5044C127.545 15.2565 128.701 15.0087 130.271 14.9261C132.997 14.7609 134.732 14.1827 135.558 13.1914C135.805 12.8609 135.971 12.7783 135.971 12.7783C136.053 12.7783 136.136 12.9436 136.136 13.1914L136.218 16.7435ZM157.861 23.1042V19.9651C157.944 19.3043 157.944 18.9738 157.944 18.9738L158.027 18.0652V17.9C158.027 17.2391 157.861 16.9087 157.448 16.9087C157.118 16.9087 156.87 17.3217 156.87 18.2304V19.4695L156.953 20.4608V21.6999C156.953 22.6911 156.87 23.352 156.622 23.5998C156.457 23.765 155.879 23.9302 155.053 23.9302H143.405C143.157 23.9302 142.992 23.8476 142.992 23.765C142.992 23.5998 143.157 23.4346 143.405 23.1042L157.118 8.31757C157.614 7.73933 157.861 7.32629 157.861 6.99587C157.861 6.66544 157.779 6.41762 157.531 6.33501C157.366 6.25241 156.87 6.25241 156.044 6.25241H143.736C142.91 6.25241 142.497 6.58283 142.579 7.32629V12.6131C142.579 13.0262 142.744 13.274 143.075 13.274C143.405 13.274 143.57 13.0262 143.57 12.4479L143.488 10.8784C143.405 9.8871 143.405 9.30885 143.405 9.30885C143.405 8.73061 143.405 8.23497 143.488 7.98715C143.653 7.49151 144.231 7.16108 145.305 7.16108H155.631C156.209 7.16108 156.54 7.24369 156.54 7.32629C156.54 7.4089 156.374 7.65672 156.044 7.98715L142.827 22.2781C142.001 23.1042 141.671 23.765 141.671 24.0128C141.671 24.5911 142.331 24.8389 143.57 24.8389H156.374C157.283 24.8389 157.696 24.5085 157.696 23.9302C157.861 23.5172 157.861 23.2694 157.861 23.1042ZM179.339 6.00459C179.257 6.00459 178.926 6.00459 178.265 6.08719C177.522 6.25241 176.613 6.25241 175.457 6.25241L174.052 6.1698C173.391 6.1698 173.061 6.08719 172.896 6.08719C172.152 6.00459 171.822 6.00459 171.822 6.00459C171.326 6.00459 171.078 6.1698 171.078 6.50023C171.078 6.83065 171.326 6.99587 171.822 6.99587H172.896C173.391 6.91326 173.722 6.91326 173.97 6.91326C174.961 6.91326 175.539 7.16108 175.539 7.73933C175.539 7.82193 175.457 8.06975 175.374 8.31757L169.426 23.1868C169.344 23.5172 169.179 23.6824 169.096 23.6824C169.013 23.6824 168.931 23.5172 168.765 23.1868L163.479 9.47407L163.066 8.31757C162.983 7.98715 162.9 7.73933 162.9 7.57411C162.9 7.07847 163.396 6.83065 164.387 6.83065H165.379L166.37 6.91326H166.452C167.031 6.91326 167.279 6.74805 167.279 6.50023C167.279 6.1698 166.948 6.00459 166.37 6.00459C166.039 6.00459 165.544 6.00459 164.883 6.08719C163.974 6.1698 163.148 6.1698 162.57 6.1698C161.413 6.1698 160.587 6.1698 160.174 6.08719C159.431 6.00459 159.101 6.00459 159.183 6.00459C158.687 6.00459 158.44 6.1698 158.44 6.50023C158.44 6.83065 158.687 6.91326 159.183 6.91326H160.009C160.753 6.91326 161.248 7.16108 161.661 7.73933C161.827 7.90454 162.074 8.56539 162.487 9.55667L168.187 24.2607C168.352 24.6737 168.435 25.0867 168.435 25.252C168.435 25.665 168.27 26.2432 167.774 27.0693C166.452 29.7127 164.635 31.0344 162.322 31.0344C161.413 31.0344 160.587 30.7866 159.761 30.291C159.018 29.7953 158.687 29.2997 158.687 28.7214C158.687 28.4736 158.77 28.3084 158.935 28.3084H159.101C159.266 28.391 159.431 28.391 159.514 28.391C160.34 28.391 160.753 27.978 160.753 27.2345C160.753 26.9041 160.587 26.5737 160.34 26.3258C160.092 26.078 159.761 25.9128 159.431 25.9128C158.935 25.9128 158.522 26.078 158.192 26.4911C157.779 26.9041 157.614 27.3171 157.614 27.8954C157.614 28.9693 158.027 29.8779 158.935 30.5388C159.844 31.2822 160.918 31.6127 162.24 31.6127C164.305 31.6127 165.957 30.8692 167.113 29.2997C168.022 28.0606 168.848 26.6563 169.509 25.0867L175.787 9.80449L176.531 8.15236C176.778 7.65672 176.944 7.24369 177.109 7.07847C177.274 6.91326 177.604 6.74805 178.1 6.74805H179.091C179.67 6.74805 180 6.58283 180 6.25241C180 6.1698 179.752 6.00459 179.339 6.00459Z" fill="black"/>
</svg>
