<svg width="16" height="16" viewBox="0 0 16 16" fill="none" xmlns="http://www.w3.org/2000/svg">
<path d="M14.0852 3.44493L12.3102 1.67159C12.0935 1.45492 11.8035 1.33325 11.4969 1.33325C11.1902 1.33325 10.9002 1.45325 10.6835 1.67159L8.77186 3.57993C8.55519 3.7966 8.43353 4.08826 8.43353 4.39493C8.43353 4.70327 8.55353 4.9916 8.77186 5.20994L10.2652 6.70494C9.92501 7.49759 9.43621 8.21778 8.8252 8.82662C8.21353 9.44162 7.49852 9.92662 6.70519 10.27L5.21185 8.77495C4.99518 8.55828 4.70518 8.43662 4.39851 8.43662C4.24725 8.43606 4.0974 8.46569 3.95773 8.52379C3.81807 8.58189 3.69141 8.66728 3.58517 8.77495L1.67183 10.6833C1.45516 10.9 1.3335 11.1916 1.3335 11.4983C1.3335 11.8066 1.4535 12.095 1.67183 12.3133L3.44517 14.0866C3.81517 14.4566 4.32518 14.6683 4.84851 14.6683C4.95685 14.6683 5.06185 14.66 5.16851 14.6416C7.37519 14.2783 9.5652 13.1033 11.3335 11.3366C13.1002 9.56662 14.2736 7.37661 14.6402 5.16827C14.7452 4.5416 14.5352 3.8966 14.0852 3.44493V3.44493ZM13.4585 4.96993C13.1335 6.93494 12.0769 8.89495 10.4852 10.4866C8.89353 12.0783 6.93519 13.135 4.97018 13.46C4.72351 13.5016 4.47018 13.4183 4.29018 13.24L2.5485 11.4983L4.39518 9.64996L6.39185 11.65L6.40685 11.665L6.76685 11.5316C7.8584 11.1303 8.84964 10.4964 9.67185 9.67392C10.4941 8.85142 11.1276 7.85997 11.5285 6.76828L11.6619 6.40827L9.64853 4.3966L11.4952 2.54826L13.2369 4.28993C13.4169 4.46993 13.5002 4.72327 13.4585 4.96993Z" fill="#222222"/>
</svg>