<svg width="20" height="18" viewBox="0 0 20 18" fill="none" xmlns="http://www.w3.org/2000/svg">
<path d="M19.57 6.24932C19.4996 6.16699 19.4122 6.1009 19.3138 6.05558C19.2154 6.01027 19.1083 5.98681 19 5.98682H14.5V2.98682C14.5 2.39008 14.263 1.81778 13.841 1.39583C13.419 0.973869 12.8467 0.736816 12.25 0.736816H7.75001C7.15327 0.736816 6.58098 0.973869 6.15902 1.39583C5.73706 1.81778 5.50001 2.39008 5.50001 2.98682V5.98682H1.00001C0.891293 5.98559 0.78361 6.00801 0.68442 6.05252C0.585229 6.09704 0.496903 6.16259 0.425562 6.24463C0.354221 6.32668 0.301569 6.42325 0.271257 6.52766C0.240944 6.63207 0.233694 6.74182 0.250009 6.84932L1.66001 15.9618C1.71425 16.3195 1.89593 16.6455 2.17158 16.8798C2.44723 17.1141 2.79826 17.2409 3.16001 17.2368H16.855C17.2168 17.2409 17.5678 17.1141 17.8434 16.8798C18.1191 16.6455 18.3008 16.3195 18.355 15.9618L19.75 6.84932C19.765 6.74224 19.7567 6.63319 19.7257 6.52962C19.6946 6.42606 19.6415 6.33044 19.57 6.24932ZM7.00001 2.98682C7.00001 2.7879 7.07903 2.59714 7.21968 2.45649C7.36033 2.31583 7.5511 2.23682 7.75001 2.23682H12.25C12.4489 2.23682 12.6397 2.31583 12.7803 2.45649C12.921 2.59714 13 2.7879 13 2.98682V5.98682H7.00001V2.98682ZM16.855 15.7368H3.14501L1.87751 7.48682H18.1225L16.855 15.7368Z" fill="#222222"/>
</svg>
