<svg width="18" height="19" viewBox="0 0 18 19" fill="none" xmlns="http://www.w3.org/2000/svg">
<path fill-rule="evenodd" clip-rule="evenodd" d="M14.5 17.7368C15.163 17.7368 15.7989 17.4734 16.2678 17.0046C16.7366 16.5357 17 15.8999 17 15.2368C17 14.5738 16.7366 13.9379 16.2678 13.469C15.7989 13.0002 15.163 12.7368 14.5 12.7368C13.837 12.7368 13.2011 13.0002 12.7322 13.469C12.2634 13.9379 12 14.5738 12 15.2368C12 15.8999 12.2634 16.5357 12.7322 17.0046C13.2011 17.4734 13.837 17.7368 14.5 17.7368ZM14.5 18.7368C15.4283 18.7368 16.3185 18.3681 16.9749 17.7117C17.6313 17.0553 18 16.1651 18 15.2368C18 14.3086 17.6313 13.4183 16.9749 12.7619C16.3185 12.1056 15.4283 11.7368 14.5 11.7368C13.5717 11.7368 12.6815 12.1056 12.0251 12.7619C11.3687 13.4183 11 14.3086 11 15.2368C11 16.1651 11.3687 17.0553 12.0251 17.7117C12.6815 18.3681 13.5717 18.7368 14.5 18.7368Z" fill="#222222"/>
<path fill-rule="evenodd" clip-rule="evenodd" d="M14.5 13.4868C14.6326 13.4868 14.7598 13.5395 14.8536 13.6333C14.9473 13.727 15 13.8542 15 13.9868V15.0298L15.3535 15.3833C15.4446 15.4776 15.495 15.6039 15.4938 15.735C15.4927 15.8661 15.4401 15.9915 15.3474 16.0842C15.2547 16.1769 15.1293 16.2295 14.9982 16.2307C14.8671 16.2318 14.7408 16.1814 14.6465 16.0903L14 15.4438V13.9868C14 13.8542 14.0527 13.727 14.1464 13.6333C14.2402 13.5395 14.3674 13.4868 14.5 13.4868ZM4 9.23682H3V10.2368H4V9.23682ZM3 8.23682C2.73478 8.23682 2.48043 8.34217 2.29289 8.52971C2.10536 8.71725 2 8.9716 2 9.23682V10.2368C2 10.502 2.10536 10.7564 2.29289 10.9439C2.48043 11.1315 2.73478 11.2368 3 11.2368H4C4.26522 11.2368 4.51957 11.1315 4.70711 10.9439C4.89464 10.7564 5 10.502 5 10.2368V9.23682C5 8.9716 4.89464 8.71725 4.70711 8.52971C4.51957 8.34217 4.26522 8.23682 4 8.23682H3ZM8 9.23682H7V10.2368H8V9.23682ZM7 8.23682C6.73478 8.23682 6.48043 8.34217 6.29289 8.52971C6.10536 8.71725 6 8.9716 6 9.23682V10.2368C6 10.502 6.10536 10.7564 6.29289 10.9439C6.48043 11.1315 6.73478 11.2368 7 11.2368H8C8.26522 11.2368 8.51957 11.1315 8.70711 10.9439C8.89464 10.7564 9 10.502 9 10.2368V9.23682C9 8.9716 8.89464 8.71725 8.70711 8.52971C8.51957 8.34217 8.26522 8.23682 8 8.23682H7ZM12 9.23682H11V10.2368H12V9.23682ZM11 8.23682C10.7348 8.23682 10.4804 8.34217 10.2929 8.52971C10.1054 8.71725 10 8.9716 10 9.23682V10.2368C10 10.502 10.1054 10.7564 10.2929 10.9439C10.4804 11.1315 10.7348 11.2368 11 11.2368H12C12.2652 11.2368 12.5196 11.1315 12.7071 10.9439C12.8946 10.7564 13 10.502 13 10.2368V9.23682C13 8.9716 12.8946 8.71725 12.7071 8.52971C12.5196 8.34217 12.2652 8.23682 12 8.23682H11ZM4 13.2368H3V14.2368H4V13.2368ZM3 12.2368C2.73478 12.2368 2.48043 12.3422 2.29289 12.5297C2.10536 12.7172 2 12.9716 2 13.2368V14.2368C2 14.502 2.10536 14.7564 2.29289 14.9439C2.48043 15.1315 2.73478 15.2368 3 15.2368H4C4.26522 15.2368 4.51957 15.1315 4.70711 14.9439C4.89464 14.7564 5 14.502 5 14.2368V13.2368C5 12.9716 4.89464 12.7172 4.70711 12.5297C4.51957 12.3422 4.26522 12.2368 4 12.2368H3ZM8 13.2368H7V14.2368H8V13.2368ZM7 12.2368C6.73478 12.2368 6.48043 12.3422 6.29289 12.5297C6.10536 12.7172 6 12.9716 6 13.2368V14.2368C6 14.502 6.10536 14.7564 6.29289 14.9439C6.48043 15.1315 6.73478 15.2368 7 15.2368H8C8.26522 15.2368 8.51957 15.1315 8.70711 14.9439C8.89464 14.7564 9 14.502 9 14.2368V13.2368C9 12.9716 8.89464 12.7172 8.70711 12.5297C8.51957 12.3422 8.26522 12.2368 8 12.2368H7Z" fill="#222222"/>
<path fill-rule="evenodd" clip-rule="evenodd" d="M1 3.73682C1 3.60421 1.05268 3.47703 1.14645 3.38326C1.24021 3.28949 1.36739 3.23682 1.5 3.23682H4V2.23682H1.5C1.10218 2.23682 0.720644 2.39485 0.43934 2.67616C0.158035 2.95746 0 3.33899 0 3.73682V15.7368C0 16.1346 0.158035 16.5162 0.43934 16.7975C0.720644 17.0788 1.10218 17.2368 1.5 17.2368H11.6275C11.4143 16.9314 11.2514 16.5938 11.145 16.2368H1.5C1.36739 16.2368 1.24021 16.1841 1.14645 16.0904C1.05268 15.9966 1 15.8694 1 15.7368V3.73682ZM14 11.7718C14.3316 11.7244 14.6684 11.7244 15 11.7718V3.73682C15 3.33899 14.842 2.95746 14.5607 2.67616C14.2794 2.39485 13.8978 2.23682 13.5 2.23682H12V3.23682H13.5C13.6326 3.23682 13.7598 3.28949 13.8536 3.38326C13.9473 3.47703 14 3.60421 14 3.73682V11.7718ZM5 3.23682H10.2815V2.23682H5V3.23682Z" fill="#222222"/>
<path fill-rule="evenodd" clip-rule="evenodd" d="M15 6.73682H1V5.73682H15V6.73682Z" fill="#222222"/>
<path d="M3 1.23682C3 1.10421 3.05268 0.977031 3.14645 0.883263C3.24021 0.789495 3.36739 0.736816 3.5 0.736816C3.63261 0.736816 3.75979 0.789495 3.85355 0.883263C3.94732 0.977031 4 1.10421 4 1.23682V3.73682C4 3.86942 3.94732 3.9966 3.85355 4.09037C3.75979 4.18414 3.63261 4.23682 3.5 4.23682C3.36739 4.23682 3.24021 4.18414 3.14645 4.09037C3.05268 3.9966 3 3.86942 3 3.73682V1.23682ZM10 1.23682C10 1.10421 10.0527 0.977031 10.1464 0.883263C10.2402 0.789495 10.3674 0.736816 10.5 0.736816C10.6326 0.736816 10.7598 0.789495 10.8536 0.883263C10.9473 0.977031 11 1.10421 11 1.23682V3.73682C11 3.86942 10.9473 3.9966 10.8536 4.09037C10.7598 4.18414 10.6326 4.23682 10.5 4.23682C10.3674 4.23682 10.2402 4.18414 10.1464 4.09037C10.0527 3.9966 10 3.86942 10 3.73682V1.23682Z" fill="#222222"/>
</svg>
