<svg width="16" height="18" viewBox="0 0 16 18" fill="none" xmlns="http://www.w3.org/2000/svg">
<path d="M14.7078 5.27489C14.6281 4.94713 14.4719 4.64823 14.2547 4.40811C14.0375 4.16799 13.767 3.99507 13.4703 3.90665C12.3781 3.58228 8 3.58228 8 3.58228C8 3.58228 3.62187 3.58228 2.52969 3.90492C2.23284 3.99306 1.96223 4.16588 1.74501 4.40605C1.52779 4.64622 1.37162 4.94526 1.29219 5.27317C1 6.48095 1 9.00003 1 9.00003C1 9.00003 1 11.5191 1.29219 12.7252C1.45312 13.3912 1.92812 13.9157 2.52969 14.0934C3.62187 14.4178 8 14.4178 8 14.4178C8 14.4178 12.3781 14.4178 13.4703 14.0934C14.0734 13.9157 14.5469 13.3912 14.7078 12.7252C15 11.5191 15 9.00003 15 9.00003C15 9.00003 15 6.48095 14.7078 5.27489ZM6.60938 11.3121V6.68799L10.2344 8.98277L6.60938 11.3121Z" fill="#222222"/>
</svg>