<svg width="18" height="21" viewBox="0 0 18 21" fill="none" xmlns="http://www.w3.org/2000/svg">
<path fill-rule="evenodd" clip-rule="evenodd" d="M9.00154 4.31067C10.6225 4.31129 12.1996 4.83706 13.4967 5.80923C14.7938 6.78139 15.741 8.14762 16.1965 9.70329C16.652 11.2589 16.5912 12.9203 16.0232 14.4385C15.4553 15.9567 14.4107 17.2501 13.046 18.1248C11.6814 18.9996 10.07 19.4087 8.45335 19.2908C6.83667 19.173 5.30168 18.5345 4.07831 17.4711C2.85493 16.4077 2.00901 14.9765 1.66724 13.392C1.32548 11.8074 1.50627 10.1548 2.18254 8.68167C2.25614 8.50256 2.25762 8.30193 2.18667 8.12175C2.11571 7.94158 1.97781 7.79583 1.80184 7.71502C1.62587 7.6342 1.42546 7.62458 1.24255 7.68817C1.05965 7.75176 0.908427 7.88362 0.820537 8.05617C0.00905228 9.82405 -0.207811 11.8073 0.202433 13.7087C0.612676 15.6102 1.62794 17.3276 3.09615 18.6036C4.56436 19.8797 6.40648 20.6457 8.34657 20.7869C10.2867 20.9281 12.2203 20.437 13.8578 19.387C15.4954 18.3371 16.7486 16.7849 17.4299 14.9628C18.1112 13.1408 18.1839 11.1471 17.637 9.28034C17.0901 7.41357 15.9531 5.77424 14.3963 4.6079C12.8395 3.44156 10.9468 2.811 9.00154 2.81067V4.31067Z" fill="#222222"/>
<path d="M9.00154 6.50968V0.611676C9.00151 0.540421 8.98118 0.470648 8.94293 0.410528C8.90469 0.350408 8.8501 0.302429 8.78557 0.27221C8.72104 0.241991 8.64924 0.230783 8.57857 0.239897C8.5079 0.249012 8.44129 0.278073 8.38654 0.323676L4.84654 3.27268C4.80433 3.30787 4.77038 3.35191 4.74708 3.40168C4.72378 3.45144 4.71171 3.50572 4.71171 3.56068C4.71171 3.61563 4.72378 3.66991 4.74708 3.71968C4.77038 3.76944 4.80433 3.81348 4.84654 3.84868L8.38654 6.79768C8.44129 6.84328 8.5079 6.87234 8.57857 6.88145C8.64924 6.89057 8.72104 6.87936 8.78557 6.84914C8.8501 6.81892 8.90469 6.77095 8.94293 6.71082C8.98118 6.6507 9.00151 6.58093 9.00154 6.50968Z" fill="#222222"/>
</svg>
