<?xml version="1.0" encoding="UTF-8"?>
<svg id="Capa_2" data-name="Capa 2" xmlns="http://www.w3.org/2000/svg" viewBox="0 0 27.42 24.46">
  <defs>
    <style>
      .cls-1 {
        fill: none;
        stroke: #222;
        stroke-linecap: round;
        stroke-linejoin: round;
        stroke-width: 1.41px;
      }

      .cls-2 {
        fill: #222;
        fill-rule: evenodd;
      }
    </style>
  </defs>
  <g id="Capa_1-2" data-name="Capa 1">
    <g>
      <path class="cls-2" d="M5.33,22.75v.19c0,.4-.16,.79-.45,1.08-.29,.29-.67,.45-1.08,.45H1.52c-.4,0-.79-.16-1.08-.45-.29-.29-.45-.67-.45-1.08V14.56c0-.4,.16-.79,.45-1.08s.67-.45,1.08-.45H3.81c.34,0,.68,.12,.95,.33,.27,.21,.46,.51,.54,.84,1.01-.36,2.19-.8,2.55-.96,.31-.14,.66-.19,.95-.2,.3-.01,.61,0,.91,.02,.34,.03,.68,.07,1.01,.13h.02s0,0,0,0h.02s5.1,1.15,5.1,1.15h.03s0,.01,0,.01h.04c.22,.08,.44,.13,.67,.18,.44,.1,.99,.18,1.5,.18,.48,0,.97,.18,1.23,.66,.23,.41,.17,.87,.09,1.18-.11,.39-.32,.8-.6,1.15,.37-.14,.78-.31,1.22-.49l.09-.04c1.24-.51,2.7-1.11,3.99-1.32,1.48-.24,2.55,.29,3.04,1.24,.43,.85,.33,1.96-.32,2.63-.16,.17-.41,.35-.66,.51-.27,.17-.6,.37-.96,.58-.84,.47-1.69,.92-2.56,1.36-1.81,.92-3.7,1.81-4.3,2.03-.7,.26-1.45,.28-2.17,.24-.43-.03-.87-.06-1.3-.11-.32-.03-.63-.06-.95-.09-1.47-.11-2.6-.47-3.63-.8l-.13-.04c-1.07-.34-2.07-.64-3.39-.7-.3-.01-.9,.01-1.45,.04Zm3.14-8.11s.18-.06,.41-.07c.22-.01,.46,0,.7,.01,.29,.02,.58,.06,.86,.11h0l5,1.12h.03c.26,.09,.52,.15,.78,.21,.45,.1,1.04,.2,1.65,.22-.05,.15-.13,.29-.22,.41-.12,.18-.26,.31-.36,.39-.32,.23-.57,.32-.73,.36-.05,.01-.11,.02-.16,.03h-.02l-4.08-.05-.14,1.51h.04s.12,.03,.12,.03l.42,.07c.36,.06,.84,.15,1.38,.23,1.05,.17,2.31,.36,3.02,.4,.5,.03,1.07-.12,1.61-.3,.56-.19,1.19-.44,1.82-.71,1.31-.54,2.64-1.08,3.76-1.27,.97-.16,1.31,.19,1.44,.43,.18,.35,.08,.73-.05,.87-.03,.03-.15,.13-.4,.29-.23,.15-.53,.33-.89,.53-.82,.46-1.65,.9-2.49,1.32-1.82,.92-3.63,1.77-4.14,1.96-.41,.15-.91,.19-1.56,.15-.39-.02-.77-.06-1.15-.1-.35-.04-.71-.07-1.06-.1-1.29-.1-2.27-.41-3.32-.74l-.1-.03c-1.09-.34-2.25-.7-3.79-.77-.35-.01-.96,0-1.51,.03v-5.41c1.07-.38,2.66-.96,3.14-1.18Zm-4.66-.08H1.52v8.37H3.81V14.56Z"/>
      <path class="cls-1" d="M16.95,.7c-1.53,0-2.77,1.23-2.77,2.74,0,1.22,.48,4.12,5.26,7.06,.09,.05,.18,.08,.28,.08s.2-.03,.28-.08c4.77-2.93,5.26-5.84,5.26-7.06,0-1.51-1.24-2.74-2.77-2.74s-2.77,1.66-2.77,1.66c0,0-1.24-1.66-2.77-1.66Z"/>
    </g>
  </g>
</svg>