<?xml version="1.0" encoding="UTF-8"?>
<svg id="Capa_2" data-name="Capa 2" xmlns="http://www.w3.org/2000/svg" viewBox="0 0 22.84 19.31">
  <defs>
    <style>
      .cls-1 {
        fill: #222;
      }
    </style>
  </defs>
  <g id="Capa_1-2" data-name="Capa 1">
    <path class="cls-1" d="M22.62,6.45c-.08-.1-.18-.17-.3-.23-.12-.05-.24-.08-.37-.08h-5.27V2.63c0-.7-.28-1.37-.77-1.86-.49-.49-1.16-.77-1.86-.77h-5.27c-.7,0-1.37,.28-1.86,.77-.49,.49-.77,1.16-.77,1.86v3.51H.89c-.13,0-.25,.02-.37,.08-.12,.05-.22,.13-.3,.22-.08,.1-.15,.21-.18,.33-.04,.12-.04,.25-.02,.38l1.65,10.66c.06,.42,.28,.8,.6,1.07,.32,.27,.73,.42,1.16,.42H19.44c.42,0,.83-.14,1.16-.42,.32-.27,.54-.66,.6-1.07l1.63-10.66c.02-.13,0-.25-.03-.37-.04-.12-.1-.23-.18-.33ZM7.4,2.17c0-.26,.11-.51,.3-.7,.19-.19,.45-.29,.71-.29h6.06c.27,0,.52,.1,.71,.29,.19,.19,.3,.44,.3,.7v3.96H7.4V2.17Zm12.53,15.67H2.91L1.34,7.61H21.5l-1.57,10.24Z"/>
  </g>
</svg>