<?xml version="1.0" encoding="UTF-8"?>
<svg id="Capa_2" data-name="Capa 2" xmlns="http://www.w3.org/2000/svg" viewBox="0 0 27.42 31.34">
  <defs>
    <style>
      .cls-1, .cls-2 {
        fill: #222;
      }

      .cls-2 {
        fill-rule: evenodd;
      }
    </style>
  </defs>
  <g id="Capa_1-2" data-name="Capa 1">
    <g>
      <path class="cls-2" d="M13.71,6.21c2.47,0,4.87,.8,6.85,2.28,1.98,1.48,3.42,3.56,4.11,5.93,.69,2.37,.6,4.9-.26,7.21-.87,2.31-2.46,4.28-4.54,5.62-2.08,1.33-4.53,1.96-7,1.78-2.46-.18-4.8-1.15-6.67-2.77-1.86-1.62-3.15-3.8-3.67-6.21-.52-2.41-.25-4.93,.79-7.18,.11-.27,.11-.58,0-.85-.11-.27-.32-.5-.59-.62-.27-.12-.57-.14-.85-.04-.28,.1-.51,.3-.64,.56C.01,14.61-.32,17.63,.31,20.52c.62,2.9,2.17,5.51,4.41,7.46,2.24,1.94,5.04,3.11,8,3.33,2.96,.22,5.9-.53,8.4-2.13,2.49-1.6,4.4-3.96,5.44-6.74,1.04-2.78,1.15-5.81,.32-8.66-.83-2.84-2.57-5.34-4.94-7.12-2.37-1.78-5.26-2.74-8.22-2.74v2.29Z"/>
      <path class="cls-1" d="M13.71,9.56V.57c0-.11-.03-.21-.09-.31-.06-.09-.14-.16-.24-.21-.1-.05-.21-.06-.32-.05-.11,.01-.21,.06-.29,.13L7.38,4.62c-.06,.05-.12,.12-.15,.2-.04,.08-.05,.16-.05,.24s.02,.17,.05,.24c.04,.08,.09,.14,.15,.2l5.39,4.49c.08,.07,.18,.11,.29,.13,.11,.01,.22,0,.32-.05,.1-.05,.18-.12,.24-.21,.06-.09,.09-.2,.09-.31Z"/>
    </g>
  </g>
</svg>