<?xml version="1.0" encoding="UTF-8"?>
<svg id="Capa_2" data-name="Capa 2" xmlns="http://www.w3.org/2000/svg" viewBox="0 0 27.42 27.42">
  <defs>
    <style>
      .cls-1, .cls-2 {
        fill: #222;
      }

      .cls-2 {
        fill-rule: evenodd;
      }
    </style>
  </defs>
  <g id="Capa_1-2" data-name="Capa 1">
    <g>
      <path class="cls-2" d="M22.09,25.9c1.01,0,1.98-.4,2.69-1.12,.71-.71,1.12-1.68,1.12-2.69s-.4-1.98-1.12-2.69c-.71-.71-1.68-1.12-2.69-1.12s-1.98,.4-2.69,1.12c-.71,.71-1.12,1.68-1.12,2.69s.4,1.98,1.12,2.69c.71,.71,1.68,1.12,2.69,1.12Zm0,1.52c1.41,0,2.77-.56,3.77-1.56s1.56-2.36,1.56-3.77-.56-2.77-1.56-3.77c-1-1-2.36-1.56-3.77-1.56s-2.77,.56-3.77,1.56c-1,1-1.56,2.36-1.56,3.77s.56,2.77,1.56,3.77c1,1,2.36,1.56,3.77,1.56Z"/>
      <path class="cls-2" d="M22.09,19.42c.2,0,.4,.08,.54,.22s.22,.34,.22,.54v1.59l.54,.54c.14,.14,.22,.34,.21,.54,0,.2-.08,.39-.22,.53-.14,.14-.33,.22-.53,.22-.2,0-.39-.08-.54-.21l-.98-.98v-2.22c0-.2,.08-.4,.22-.54s.34-.22,.54-.22ZM6.09,12.95h-1.52v1.52h1.52v-1.52Zm-1.52-1.52c-.4,0-.79,.16-1.08,.45-.29,.29-.45,.67-.45,1.08v1.52c0,.4,.16,.79,.45,1.08,.29,.29,.67,.45,1.08,.45h1.52c.4,0,.79-.16,1.08-.45,.29-.29,.45-.67,.45-1.08v-1.52c0-.4-.16-.79-.45-1.08-.29-.29-.67-.45-1.08-.45h-1.52Zm7.62,1.52h-1.52v1.52h1.52v-1.52Zm-1.52-1.52c-.4,0-.79,.16-1.08,.45-.29,.29-.45,.67-.45,1.08v1.52c0,.4,.16,.79,.45,1.08,.29,.29,.67,.45,1.08,.45h1.52c.4,0,.79-.16,1.08-.45,.29-.29,.45-.67,.45-1.08v-1.52c0-.4-.16-.79-.45-1.08-.29-.29-.67-.45-1.08-.45h-1.52Zm7.62,1.52h-1.52v1.52h1.52v-1.52Zm-1.52-1.52c-.4,0-.79,.16-1.08,.45s-.45,.67-.45,1.08v1.52c0,.4,.16,.79,.45,1.08,.29,.29,.67,.45,1.08,.45h1.52c.4,0,.79-.16,1.08-.45,.29-.29,.45-.67,.45-1.08v-1.52c0-.4-.16-.79-.45-1.08s-.67-.45-1.08-.45h-1.52Zm-10.66,7.62h-1.52v1.52h1.52v-1.52Zm-1.52-1.52c-.4,0-.79,.16-1.08,.45-.29,.29-.45,.67-.45,1.08v1.52c0,.4,.16,.79,.45,1.08,.29,.29,.67,.45,1.08,.45h1.52c.4,0,.79-.16,1.08-.45,.29-.29,.45-.67,.45-1.08v-1.52c0-.4-.16-.79-.45-1.08-.29-.29-.67-.45-1.08-.45h-1.52Zm7.62,1.52h-1.52v1.52h1.52v-1.52Zm-1.52-1.52c-.4,0-.79,.16-1.08,.45-.29,.29-.45,.67-.45,1.08v1.52c0,.4,.16,.79,.45,1.08,.29,.29,.67,.45,1.08,.45h1.52c.4,0,.79-.16,1.08-.45,.29-.29,.45-.67,.45-1.08v-1.52c0-.4-.16-.79-.45-1.08-.29-.29-.67-.45-1.08-.45h-1.52Z"/>
      <path class="cls-2" d="M1.52,4.57c0-.2,.08-.4,.22-.54,.14-.14,.34-.22,.54-.22h3.81v-1.52H2.29c-.61,0-1.19,.24-1.62,.67-.43,.43-.67,1.01-.67,1.62V22.85c0,.61,.24,1.19,.67,1.62,.43,.43,1.01,.67,1.62,.67h15.43c-.32-.47-.57-.98-.74-1.52H2.29c-.2,0-.4-.08-.54-.22-.14-.14-.22-.34-.22-.54V4.57Zm19.81,12.24c.51-.07,1.02-.07,1.52,0V4.57c0-.61-.24-1.19-.67-1.62-.43-.43-1.01-.67-1.62-.67h-2.29v1.52h2.29c.2,0,.4,.08,.54,.22,.14,.14,.22,.34,.22,.54v12.24ZM7.62,3.81H15.66v-1.52H7.62v1.52Z"/>
      <path class="cls-2" d="M22.85,9.14H1.52v-1.52H22.85v1.52Z"/>
      <path class="cls-1" d="M4.57,.76c0-.2,.08-.4,.22-.54,.14-.14,.34-.22,.54-.22s.4,.08,.54,.22c.14,.14,.22,.34,.22,.54v3.81c0,.2-.08,.4-.22,.54-.14,.14-.34,.22-.54,.22s-.4-.08-.54-.22c-.14-.14-.22-.34-.22-.54V.76ZM15.23,.76c0-.2,.08-.4,.22-.54,.14-.14,.34-.22,.54-.22s.4,.08,.54,.22c.14,.14,.22,.34,.22,.54v3.81c0,.2-.08,.4-.22,.54-.14,.14-.34,.22-.54,.22s-.4-.08-.54-.22c-.14-.14-.22-.34-.22-.54V.76Z"/>
    </g>
  </g>
</svg>